<?xml version="1.0" encoding="iso-8859-1"?>
<!-- Generator: Adobe Illustrator 18.1.1, SVG Export Plug-In . SVG Version: 6.00 Build 0)  -->
<svg version="1.1" id="Capa_1" xmlns="http://www.w3.org/2000/svg" xmlns:xlink="http://www.w3.org/1999/xlink" x="0px" y="0px"
	 viewBox="0 0 478.165 478.165" style="enable-background:new 0 0 478.165 478.165;" xml:space="preserve">
<g>
	<path id="vCard_2_" d="M460.373,382.299c-0.04-20.442-14.345-20.92-31.34-27.813l-79.794-31.878
		c-1.355-0.498-2.769-1.215-4.164-1.753v-0.04c-14.106-6.415-26.658-15.361-31.24-21.537l-0.1-0.359l-0.04-0.04
		c-0.339-0.418-0.717-0.837-0.877-1.116l-0.1-0.359l-0.02-0.08l-0.259-0.339l0,0c-1.992-3.188-4.244-4.662-6.097-3.865l-0.08,0.02
		h-0.04l0,0l-0.06,0.04l0,0l-0.279,0.1c-2.052,1.255-1.654-0.1-2.51-2.411c-2.212-5.997-5.838-16.895-6.356-18.628
		c-0.877-2.929-2.929,4.742-2.451-3.706l0.936-15.162c1.415-1.674,2.55-2.989,3.367-3.845c5.22-5.838,5.658-21.617,8.308-25.402
		c2.51-3.766,7.69-4.642,12.99-22.414c5.24-17.911,11.456-43.334,4.841-43.712c-1.733-0.12-3.646,0.956-5.519,2.65
		c1.255-6.535,3.686-21.418,4.204-32.296c0.817-14.425-1.554-51.462-9.822-65.03c-5.12-8.487-15.441-16.855-25.741-23.41
		c-6.176-3.945-12.213-7.172-17.373-9.364c-14.963-6.694-62.44-3.646-78.399,0c-18.23,4.044-31.081,15.481-39.229,29.048
		c-8.169,13.648-11.874,54.312-11.157,68.736c0.398,6.395,4.224,17.353,5.2,24.048c0.618,3.507,1.096,3.507,1.574,5.937
		c-0.757-0.259-1.395-0.418-2.052-0.339c-6.635,0.359-0.359,25.801,4.821,43.692c5.32,17.792,10.44,18.648,13.05,22.414
		c2.61,3.766,3.008,19.545,8.208,25.422c0.757,0.877,2.072,2.311,3.546,4.044l1.076,12.472l1.674,6.754
		c-0.757-1.893-2.331-3.267-3.068-0.538c-2.291,6.874-4.443,13.608-6.714,20.441c-0.239-0.379-0.657-0.498-0.976-0.498
		c-2.251-2.092-5.12-0.339-7.73,4.204c-3.945,6.515-17.015,15.979-32.137,22.673l-0.219,0.916l-0.239,0.797l-0.08,0.398
		c-1.156,0.458-2.331,0.956-3.646,1.415l-79.674,31.878c-17.035,6.933-31.34,7.372-31.36,27.813L0,451.574h478.165L460.373,382.299z
		"/>
</g>
<g>
</g>
<g>
</g>
<g>
</g>
<g>
</g>
<g>
</g>
<g>
</g>
<g>
</g>
<g>
</g>
<g>
</g>
<g>
</g>
<g>
</g>
<g>
</g>
<g>
</g>
<g>
</g>
<g>
</g>
</svg>
