<?xml version="1.0" encoding="UTF-8"?>
<svg xmlns="http://www.w3.org/2000/svg" xmlns:xlink="http://www.w3.org/1999/xlink" width="20px" height="20px" viewBox="0 0 20 20" version="1.1">
<g id="surface1">
<path style=" stroke:none;fill-rule:nonzero;fill:rgb(0%,0%,0%);fill-opacity:1;" d="M 13.058594 6.25 C 13.058594 6.164062 12.988281 6.09375 12.902344 6.09375 L 11.835938 6.09375 C 11.78125 6.09375 11.726562 6.125 11.699219 6.179688 L 10.046875 9.476562 L 9.980469 9.476562 L 8.328125 6.179688 C 8.300781 6.128906 8.246094 6.09375 8.1875 6.09375 L 7.101562 6.09375 C 7.074219 6.09375 7.046875 6.101562 7.023438 6.113281 C 6.949219 6.15625 6.921875 6.25 6.960938 6.324219 L 8.992188 10.066406 L 7.878906 10.066406 C 7.792969 10.066406 7.722656 10.136719 7.722656 10.222656 L 7.722656 10.75 C 7.722656 10.835938 7.792969 10.90625 7.878906 10.90625 L 9.363281 10.90625 L 9.363281 11.671875 L 7.878906 11.671875 C 7.792969 11.671875 7.722656 11.742188 7.722656 11.828125 L 7.722656 12.355469 C 7.722656 12.441406 7.792969 12.511719 7.878906 12.511719 L 9.363281 12.511719 L 9.363281 13.75 C 9.363281 13.835938 9.433594 13.90625 9.519531 13.90625 L 10.492188 13.90625 C 10.578125 13.90625 10.648438 13.835938 10.648438 13.75 L 10.648438 12.507812 L 12.140625 12.507812 C 12.226562 12.507812 12.296875 12.4375 12.296875 12.351562 L 12.296875 11.824219 C 12.296875 11.738281 12.226562 11.667969 12.140625 11.667969 L 10.648438 11.667969 L 10.648438 10.90625 L 12.140625 10.90625 C 12.226562 10.90625 12.296875 10.835938 12.296875 10.75 L 12.296875 10.21875 C 12.296875 10.132812 12.226562 10.0625 12.140625 10.0625 L 11.015625 10.0625 L 13.039062 6.320312 C 13.050781 6.300781 13.058594 6.273438 13.058594 6.25 Z M 3.085938 9.847656 C 3.121094 8.066406 3.84375 6.371094 5.105469 5.113281 C 5.742188 4.476562 6.476562 3.976562 7.300781 3.628906 C 8.152344 3.269531 9.054688 3.085938 9.988281 3.085938 C 10.921875 3.085938 11.828125 3.269531 12.675781 3.628906 C 13.5 3.976562 14.234375 4.476562 14.871094 5.113281 C 15.066406 5.308594 15.246094 5.511719 15.414062 5.726562 L 14.4375 6.488281 C 14.390625 6.527344 14.371094 6.585938 14.382812 6.644531 C 14.394531 6.703125 14.441406 6.75 14.5 6.765625 L 17.5625 7.515625 C 17.65625 7.539062 17.753906 7.460938 17.753906 7.363281 L 17.769531 4.210938 C 17.769531 4.078125 17.617188 4.003906 17.515625 4.085938 L 16.585938 4.816406 C 15.054688 2.859375 12.667969 1.601562 9.992188 1.601562 C 5.410156 1.601562 1.6875 5.273438 1.601562 9.839844 C 1.601562 9.882812 1.617188 9.921875 1.644531 9.953125 C 1.675781 9.984375 1.714844 10 1.757812 10 L 2.929688 10 C 3.015625 10 3.082031 9.929688 3.085938 9.847656 Z M 18.242188 10 L 17.070312 10 C 16.984375 10 16.914062 10.070312 16.914062 10.152344 C 16.878906 11.933594 16.152344 13.628906 14.894531 14.886719 C 14.261719 15.519531 13.519531 16.023438 12.695312 16.367188 C 11.84375 16.726562 10.941406 16.910156 10.007812 16.910156 C 9.078125 16.910156 8.171875 16.730469 7.320312 16.367188 C 6.5 16.023438 5.757812 15.519531 5.128906 14.886719 C 4.929688 14.691406 4.75 14.484375 4.582031 14.273438 L 5.554688 13.507812 C 5.605469 13.472656 5.625 13.414062 5.613281 13.355469 C 5.601562 13.296875 5.554688 13.25 5.5 13.234375 L 2.4375 12.484375 C 2.335938 12.460938 2.242188 12.539062 2.242188 12.636719 L 2.226562 15.796875 C 2.226562 15.925781 2.375 16 2.476562 15.917969 L 3.414062 15.1875 C 4.945312 17.140625 7.332031 18.398438 10.007812 18.398438 C 14.589844 18.398438 18.3125 14.726562 18.398438 10.160156 C 18.398438 10.117188 18.382812 10.078125 18.355469 10.046875 C 18.324219 10.015625 18.285156 10 18.242188 10 Z M 18.242188 10 "/>
</g>
</svg>
